<?xml version="1.0" encoding="UTF-8"?>
<svg id="Capa_2" data-name="Capa 2" xmlns="http://www.w3.org/2000/svg" viewBox="0 0 728.15 353.53">
  <defs>
    <style>
      .cls-1 {
        fill: #1d1d1b;
        font-family: Raleway-Regular, 'Raleway Regular';
        font-size: 63px;
      }

      .cls-2 {
        fill: #020303;
        stroke-width: 0px;
      }
    </style>
  </defs>
  <g id="Capa_1-2" data-name="Capa 1">
    <g>
      <path class="cls-2" d="m645.27,174c-14.18-1.06-25.05-1.01-34.38-.22-.14-.32-.52-.13-.97.08-1.61.15-3.16.32-4.69.51-26.98,1.83-40.59,12.69-58.49,12.69-4.21,0-6.55-3.18-6.55-7.64,0-5.09,2.69-10.93,6.43-16.66,41.71-1.94,54.17-22.14,51.46-33.08-.92-3.71-4.6-7.56-9.74-7.56-11.22,0-30.39,12.1-50.49,38.84-5.61,2.55-7.01,3.18-11.69,5.09-.09.04-.17.09-.25.14-28.75,14.55-48.09,22.15-59.89,22.15-2.84,0-4.26-1.27-4.26-4.46,0-8.91,33.16-25.47,33.16-47.75,0-7-4.26-10.19-10.9-10.19-14.69,0-46.9,15.92-88.12,43.93v-.64c16.58-15.92,21.79-25.47,21.79-33.74,0-5.73-3.79-8.91-10.42-8.91-15.63,0-52.11,26.1-80.06,39.47-.03.01-.05.03-.08.04-28.37,14.61-41.61,20.33-48.24,20.33-4.26,0-6.63-1.27-6.63-5.09,0-8.28,7.58-21.01,42.64-50.3l-1.89-3.18-2.84,2.55c-6.16-4.46-12.32-7-19.42-7-18.95,0-34.11,2.55-54.48,12.1l-24.57,11.49c-44.6,19.56-75.44,29.73-95.95,29.73-8.81,0-13.71-5.26-13.71-11.84,0-14.48,15.67-43.43,87.15-103.96l-2.94-5.26C111.82,95.11,57.96,97.75,33.48,97.75c-1.96,0-3.92,2.63-3.92,3.95,0,2.63,1.72,2.15,3.68,2.15,28.4,0,86.55-9.11,126.69-28.84l.98,1.32c-37.21,35.53-67.7,70.12-67.7,92.49,0,9.21,6.85,17.11,20.56,17.11,23.34,0,52.25-9.97,92.11-26.61-7.07,8.11-8.95,13.9-8.95,20.11,0,7,4.74,10.19,12.79,10.19,14.69,0,35.06-7.64,68.69-31.2l.47.64c-9,10.19-11.37,17.19-11.37,23.56,0,5.09,3.79,8.91,10.42,8.91,9,0,21.79-5.73,49.27-20.37.02,0,.03-.02.05-.02,28.89-14.01,64.86-39.45,79.06-39.45,4.26,0,7.11,1.27,7.11,5.73,0,8.91-17.53,26.1-46.9,54.12l1.89,3.82c54.01-39.47,98.06-63.67,114.65-63.67,3.32,0,4.26,1.91,4.26,4.46,0,7-33.16,24.19-33.16,47.75,0,7.64,4.26,10.19,10.42,10.19,14.21,0,34.11-8.91,61.59-22.92.02-.01.04-.03.07-.04l7.86-3.15c-2.81,5.73-3.27,9.55-3.27,12.73,0,7,4.21,12.1,14.96,12.1,17.29,0,32.16-10.97,50.95-15.08,2.97-.53,6-.99,9.17-1.36.66-.05,1.32-.09,1.98-.12.1-.05.21-.09.32-.13,10.02-1.01,21.52-1.14,36.78,0,48.1,3.6,84.3,30.44,80.52,59.59-3.37,26-44.66,47.57-113.87,42.39-97.66-7.31-176.16-43.69-295.52-52.62-84.17-6.3-224.7,4.12-316.12,126.94l1.04,1.14c94.56-117.28,225.4-114.64,296.08-109.35,124.64,9.33,175.05,38.56,281.21,46.51,102.65,7.69,145.86-26.47,149.54-54.83,3.95-30.46-33.03-58.16-82.6-61.87Zm-57.4-46.15c3.27,0,5.03,1.19,5.61,3.67,1.41,6,0,20.22-44.42,25.62,12.62-15.92,29.45-29.29,38.8-29.29Zm-376.25,56.66c-3.32,0-5.21-1.91-5.21-5.09,0-12.73,46.9-49.66,84.33-49.66,5.68,0,10.9.64,15.16,3.82-52.11,38.84-76.27,50.93-94.27,50.93Z"/>
      <path class="cls-2" d="m230.98,21.14c6.63,0,11.79-4.77,11.79-10.23,0-6.14-5.16-10.91-11.79-10.91-5.89,0-11.05,4.77-11.05,10.91,0,5.46,5.16,10.23,11.05,10.23Z"/>
    </g>
    <text class="cls-1" transform="translate(280.02 91)"><tspan x="0" y="0">El papel de</tspan></text>
  </g>
</svg>