<?xml version="1.0" encoding="utf-8"?>
<!-- Generator: Adobe Illustrator 22.1.0, SVG Export Plug-In . SVG Version: 6.00 Build 0)  -->
<svg version="1.1" id="Capa_1" xmlns="http://www.w3.org/2000/svg" xmlns:xlink="http://www.w3.org/1999/xlink" x="0px" y="0px"
	 viewBox="0 0 174 174" style="enable-background:new 0 0 174 174;" xml:space="preserve">
<style type="text/css">
	.st0{opacity:0.6;}
	.st1{fill:#FFFFFF;}
	.st2{opacity:0.6;fill:#FFFFFF;}
</style>
<g id="Elipse_3" transform="translate(120 2667)" class="st0">
	<path class="st1" d="M-34.6-2493c-0.7,0-1.4,0-2.2-0.1l0.6-13c0.6,0,1.2,0,1.8,0.1L-34.6-2493z M-28.2-2493.1l-0.7-13
		c0.6,0,1.2-0.1,1.8-0.1l1,13C-26.7-2493.2-27.4-2493.2-28.2-2493.1z M-43.2-2493.6c-0.7-0.1-1.4-0.2-2.1-0.3l1.8-12.9
		c0.6,0.1,1.2,0.2,1.8,0.2L-43.2-2493.6z M-19.6-2494l-2-12.8c0.6-0.1,1.2-0.2,1.8-0.3l2.3,12.8C-18.1-2494.3-18.9-2494.1-19.6-2494
		z M-51.8-2495c-0.7-0.2-1.4-0.3-2.1-0.5l3.1-12.6c0.6,0.1,1.2,0.3,1.8,0.4L-51.8-2495z M-11.1-2495.8l-3.3-12.6
		c0.6-0.2,1.2-0.3,1.8-0.5l3.6,12.5C-9.7-2496.2-10.4-2496-11.1-2495.8z M-60.1-2497.3c-0.7-0.2-1.4-0.5-2.1-0.7l4.4-12.2
		c0.6,0.2,1.2,0.4,1.7,0.6L-60.1-2497.3z M-2.9-2498.4l-4.5-12.2c0.6-0.2,1.1-0.4,1.7-0.7l4.8,12.1
		C-1.5-2498.9-2.2-2498.6-2.9-2498.4z M-68.2-2500.4c-0.7-0.3-1.3-0.6-2-0.9l5.6-11.7c0.6,0.3,1.1,0.5,1.7,0.8L-68.2-2500.4z
		 M5.1-2501.8l-5.7-11.7c0.6-0.3,1.1-0.5,1.6-0.8l6,11.5C6.4-2502.4,5.7-2502.1,5.1-2501.8z M-75.9-2504.3c-0.6-0.4-1.3-0.7-1.9-1.1
		l6.7-11.1c0.5,0.3,1.1,0.6,1.6,0.9L-75.9-2504.3z M12.6-2505.9L5.8-2517c0.5-0.3,1-0.6,1.5-1l7.1,10.9
		C13.9-2506.7,13.3-2506.3,12.6-2505.9z M-83.2-2508.9c-0.6-0.4-1.2-0.8-1.7-1.3l7.8-10.4c0.5,0.4,1,0.7,1.5,1.1L-83.2-2508.9z
		 M19.8-2510.8l-7.9-10.3c0.5-0.4,1-0.8,1.4-1.1l8.1,10.1C20.9-2511.7,20.3-2511.3,19.8-2510.8z M-90-2514.3
		c-0.5-0.5-1.1-0.9-1.6-1.4l8.8-9.6c0.5,0.4,0.9,0.8,1.4,1.2L-90-2514.3z M26.4-2516.4l-8.9-9.5c0.4-0.4,0.9-0.8,1.3-1.3l9.1,9.3
		C27.4-2517.4,26.9-2516.9,26.4-2516.4z M-96.2-2520.3c-0.5-0.5-1-1.1-1.5-1.6l9.7-8.7c0.4,0.5,0.8,0.9,1.2,1.4L-96.2-2520.3z
		 M32.4-2522.6l-9.8-8.6c0.4-0.5,0.8-0.9,1.2-1.4l10,8.3C33.3-2523.7,32.8-2523.1,32.4-2522.6z M-101.9-2526.8
		c-0.4-0.6-0.9-1.1-1.3-1.7l10.5-7.7c0.4,0.5,0.7,1,1.1,1.5L-101.9-2526.8z M37.7-2529.4l-10.6-7.6c0.4-0.5,0.7-1,1.1-1.5l10.8,7.3
		C38.6-2530.5,38.2-2529.9,37.7-2529.4z M-106.8-2533.9c-0.4-0.6-0.8-1.2-1.1-1.8l11.2-6.6c0.3,0.5,0.6,1,1,1.6L-106.8-2533.9z
		 M42.4-2536.6l-11.3-6.5c0.3-0.5,0.6-1.1,0.9-1.6l11.4,6.2C43.1-2537.9,42.8-2537.2,42.4-2536.6z M-111-2541.4
		c-0.3-0.6-0.6-1.3-0.9-1.9l11.8-5.5c0.3,0.6,0.5,1.1,0.8,1.6L-111-2541.4z M46.4-2544.3l-11.8-5.3c0.3-0.6,0.5-1.1,0.7-1.7l12,5
		C47-2545.6,46.7-2545,46.4-2544.3z M-114.4-2549.4c-0.3-0.7-0.5-1.3-0.7-2l12.3-4.3c0.2,0.6,0.4,1.2,0.6,1.7L-114.4-2549.4z
		 M49.5-2552.4l-12.3-4.1c0.2-0.6,0.4-1.2,0.6-1.8l12.4,3.8C50-2553.8,49.8-2553.1,49.5-2552.4z M-117.1-2557.6
		c-0.2-0.7-0.4-1.4-0.5-2.1l12.6-3c0.1,0.6,0.3,1.2,0.5,1.8L-117.1-2557.6z M51.9-2560.7l-12.7-2.9c0.1-0.6,0.3-1.2,0.4-1.8
		l12.7,2.5C52.2-2562.1,52-2561.4,51.9-2560.7z M-118.9-2566c-0.1-0.7-0.2-1.4-0.3-2.1l12.9-1.7c0.1,0.6,0.2,1.2,0.3,1.8
		L-118.9-2566z M53.3-2569.2l-12.9-1.6c0.1-0.6,0.1-1.2,0.2-1.8l12.9,1.3C53.5-2570.7,53.4-2569.9,53.3-2569.2z M-119.8-2574.6
		c0-0.7-0.1-1.4-0.1-2.2l13-0.5c0,0.6,0.1,1.2,0.1,1.8L-119.8-2574.6z M-106.9-2582.8l-13-0.5c0-0.7,0.1-1.4,0.1-2.2l13,0.8
		C-106.9-2584-106.9-2583.4-106.9-2582.8z M40.6-2587.3c-0.1-0.6-0.1-1.2-0.2-1.8l12.9-1.6c0.1,0.7,0.2,1.4,0.2,2.1L40.6-2587.3z
		 M-106.3-2590.1l-12.9-1.8c0.1-0.7,0.2-1.4,0.3-2.1l12.8,2.1C-106.1-2591.3-106.2-2590.7-106.3-2590.1z M39.6-2594.6
		c-0.1-0.6-0.3-1.2-0.4-1.8l12.7-2.9c0.2,0.7,0.3,1.4,0.4,2.1L39.6-2594.6z M-105-2597.3l-12.6-3c0.2-0.7,0.3-1.4,0.5-2.1l12.6,3.3
		C-104.7-2598.5-104.8-2597.9-105-2597.3z M37.8-2601.7c-0.2-0.6-0.4-1.2-0.6-1.8l12.3-4.1c0.2,0.7,0.4,1.4,0.7,2.1L37.8-2601.7z
		 M-102.9-2604.4l-12.3-4.3c0.2-0.7,0.5-1.4,0.7-2l12.2,4.6C-102.5-2605.5-102.7-2604.9-102.9-2604.4z M35.3-2608.6
		c-0.2-0.6-0.5-1.1-0.7-1.7l11.9-5.3c0.3,0.7,0.6,1.3,0.9,2L35.3-2608.6z M-100.1-2611.2l-11.8-5.5c0.3-0.7,0.6-1.3,0.9-1.9
		l11.6,5.8C-99.6-2612.3-99.9-2611.7-100.1-2611.2z M32.1-2615.2c-0.3-0.5-0.6-1.1-0.9-1.6l11.3-6.5c0.4,0.6,0.7,1.2,1,1.9
		L32.1-2615.2z M-96.7-2617.7l-11.2-6.6c0.4-0.6,0.7-1.2,1.1-1.8l11,6.9C-96.1-2618.7-96.4-2618.2-96.7-2617.7z M28.3-2621.5
		c-0.3-0.5-0.7-1-1-1.5l10.6-7.6c0.4,0.6,0.8,1.2,1.2,1.8L28.3-2621.5z M-92.6-2623.8l-10.5-7.7c0.4-0.6,0.9-1.2,1.3-1.7l10.3,8
		C-91.9-2624.8-92.3-2624.3-92.6-2623.8z M23.8-2627.4c-0.4-0.5-0.8-0.9-1.2-1.4l9.8-8.6c0.5,0.5,0.9,1.1,1.4,1.6L23.8-2627.4z
		 M-88-2629.5l-9.7-8.7c0.5-0.5,1-1.1,1.5-1.6l9.4,8.9C-87.2-2630.4-87.6-2630-88-2629.5z M18.9-2632.8c-0.4-0.4-0.9-0.9-1.3-1.3
		l8.9-9.5c0.5,0.5,1,1,1.6,1.5L18.9-2632.8z M-82.8-2634.7l-8.7-9.6c0.5-0.5,1.1-1,1.6-1.4l8.5,9.8
		C-81.9-2635.6-82.3-2635.1-82.8-2634.7z M13.4-2637.7c-0.5-0.4-1-0.8-1.4-1.1l7.9-10.3c0.6,0.4,1.1,0.9,1.7,1.3L13.4-2637.7z
		 M-77.1-2639.4l-7.8-10.4c0.6-0.4,1.2-0.9,1.7-1.3l7.5,10.6C-76.1-2640.1-76.6-2639.8-77.1-2639.4z M7.4-2642c-0.5-0.3-1-0.7-1.5-1
		l6.8-11.1c0.6,0.4,1.2,0.8,1.8,1.2L7.4-2642z M-71-2643.5l-6.7-11.1c0.6-0.4,1.2-0.7,1.9-1.1l6.4,11.3
		C-70-2644.1-70.5-2643.8-71-2643.5z M1.1-2645.7c-0.5-0.3-1.1-0.6-1.6-0.8l5.7-11.7c0.6,0.3,1.3,0.6,1.9,1L1.1-2645.7z M-64.6-2647
		l-5.5-11.8c0.6-0.3,1.3-0.6,2-0.9l5.3,11.9C-63.4-2647.5-64-2647.2-64.6-2647z M-5.6-2648.8c-0.6-0.2-1.1-0.4-1.7-0.7l4.5-12.2
		c0.7,0.3,1.4,0.5,2,0.8L-5.6-2648.8z M-57.8-2649.8l-4.3-12.3c0.7-0.2,1.4-0.5,2-0.7l4.1,12.4C-56.6-2650.2-57.2-2650-57.8-2649.8z
		 M-12.6-2651.1c-0.6-0.2-1.2-0.3-1.8-0.5l3.3-12.6c0.7,0.2,1.4,0.4,2.1,0.6L-12.6-2651.1z M-50.7-2651.9l-3.1-12.6
		c0.7-0.2,1.4-0.3,2.1-0.5l2.8,12.7C-49.5-2652.1-50.1-2652-50.7-2651.9z M-19.7-2652.8c-0.6-0.1-1.2-0.2-1.8-0.3l2-12.8
		c0.7,0.1,1.4,0.2,2.1,0.4L-19.7-2652.8z M-43.5-2653.3l-1.8-12.9c0.7-0.1,1.4-0.2,2.1-0.3l1.5,12.9
		C-42.3-2653.4-42.9-2653.3-43.5-2653.3z M-27-2653.8c-0.6,0-1.2-0.1-1.8-0.1l0.7-13c0.7,0,1.4,0.1,2.2,0.1L-27-2653.8z
		 M-36.2-2653.9l-0.6-13c0.7,0,1.4-0.1,2.2-0.1l0.2,13C-35-2654-35.6-2654-36.2-2653.9z"/>
</g>
<path id="Trazado_140" class="st1" d="M67.2,81.1h-4.5V93H64v-3.8h3.2c3,0,4.9-1.5,4.9-4.1C72.1,82.6,70.2,81.1,67.2,81.1z
	 M67.2,88.1H64v-5.9h3.2c2.4,0,3.6,1.1,3.6,3C70.8,87,69.5,88.1,67.2,88.1L67.2,88.1z M77.5,93h7.9v-1.1h-6.7V81.1h-1.3V93z
	 M99.1,93h1.3l-5.4-11.9h-1.2L88.3,93h1.3l1.4-3.2h6.6L99.1,93z M91.5,88.8l2.9-6.4l2.9,6.4H91.5z M113.2,81.1h-1.3l-4.1,6.7
	l-4.1-6.7h-1.3l4.8,7.8V93h1.2v-4.1L113.2,81.1z"/>
<path class="st2" d="M173.7,87.9l-13,0.1c0-0.6,0-1.2,0-1.8l13-0.5C173.7,86.5,173.7,87.2,173.7,87.9z"/>
</svg>
