<svg width="20" height="27" viewBox="0 0 20 27" fill="none" xmlns="http://www.w3.org/2000/svg">
<path d="M2.76856e-07 13.5C1.65413 13.5 3.23309 13.0371 4.73685 12.1114C4.73685 12.1114 7.54386 9.64285 8.49624 7.63714C9.49875 5.58 10 3.03429 10 -2.05079e-07C10 4.52572 10.9524 7.92 12.8571 10.1829C14.812 12.3943 17.193 13.5 20 13.5C18.2456 13.5 16.5915 13.9886 15.0376 14.9657C13.5338 15.9429 12.3058 17.46 11.3534 19.5171C10.4511 21.5229 10 24.0171 10 27C10 24.0686 9.49875 21.6 8.49624 19.5943C7.54386 17.5371 6.29073 16.02 4.73685 15.0429C3.23309 14.0143 1.65413 13.5 2.76856e-07 13.5Z" fill="#AD826F"/>
</svg>
