<svg width="260" height="86" viewBox="0 0 260 86" fill="none" xmlns="http://www.w3.org/2000/svg">
<g clip-path="url(#clip0_206_215)">
<path d="M115.736 33.934C121.242 33.934 126.456 37.3152 127.556 44.6209H103.035C104.061 38.2101 108.835 33.934 115.736 33.934ZM126.773 55.4295C124.9 58.3599 121.28 60.614 116.324 60.614C109.495 60.614 104.281 56.8563 103.035 50.2224H133.799C133.947 49.2716 134.022 48.3108 134.023 47.3484C134.023 37.0312 126.838 27.8906 115.74 27.8906C104.288 27.8906 96.5049 36.3662 96.5049 47.2762C96.5049 58.3215 104.364 66.6619 116.18 66.6619C123.523 66.6619 129.103 63.3438 132.333 58.3215L126.773 55.4295Z" fill="#8C5256"/>
<path d="M93.482 11.8975H87.0957V65.7016H93.482V11.8975Z" fill="#8C5256"/>
<path d="M169.559 43.0744V65.6992H163.17V43.4418C163.17 37.3985 159.721 34.0082 154.067 34.0082C148.193 34.0082 143.421 37.4729 143.421 46.1693V65.6992H137.032V28.853H143.421V34.1593C146.138 29.811 150.175 27.895 155.322 27.895C163.911 27.895 169.566 33.6431 169.566 43.0789" fill="#8C5256"/>
<path d="M204.78 47.274C204.78 39.7564 199.125 34.0805 191.711 34.0805C184.368 34.0805 178.716 39.7564 178.716 47.274C178.716 54.7915 184.368 60.4674 191.711 60.4674C199.121 60.4674 204.78 54.7915 204.78 47.274ZM211.166 11.8975V65.7016H204.78V59.3607C201.843 63.8689 197.145 66.6596 190.902 66.6596C180.696 66.6596 172.327 58.1817 172.327 47.274C172.327 36.3662 180.696 27.8883 190.902 27.8883C197.143 27.8883 201.843 30.688 204.78 35.185V11.8975H211.166Z" fill="#8C5256"/>
<path d="M222.704 11.8975H216.317V65.7016H222.704V11.8975Z" fill="#8C5256"/>
<path d="M75.7104 47.2738C75.7104 39.7562 70.0584 34.0803 62.6413 34.0803C55.3007 34.0803 49.6464 39.7562 49.6464 47.2738C49.6464 54.7914 55.3007 60.4673 62.6413 60.4673C70.0516 60.4673 75.7104 54.7914 75.7104 47.2738ZM82.0989 28.853V65.6992H75.7104V59.3605C72.7732 63.8688 68.0755 66.6594 61.8352 66.6594C51.6292 66.6594 43.2578 58.1816 43.2578 47.2738C43.2578 36.366 51.6292 27.8882 61.8352 27.8882C68.0755 27.8882 72.7732 30.6878 75.7104 35.1848V28.853H82.0989Z" fill="#8C5256"/>
<path d="M33.7843 58.6078C30.5145 59.819 26.9851 60.146 23.5497 59.556C20.1144 58.966 16.894 57.4798 14.2113 55.2464C11.5286 53.013 9.47799 50.1109 8.26504 46.831C7.05209 43.5512 6.71943 40.0088 7.30042 36.5592C7.88141 33.1096 9.35563 29.8739 11.5753 27.1766C13.7949 24.4793 16.6819 22.4151 19.9469 21.1911C23.2119 19.9671 26.7401 19.6262 30.1777 20.2027C33.6153 20.7792 36.8415 22.2527 39.5328 24.4756C40.6551 25.4051 41.6704 26.4575 42.5598 27.6133L48.0861 23.5559C44.8666 19.3309 40.47 16.1606 35.4535 14.4467C30.4371 12.7328 25.0267 12.5526 19.908 13.9288C14.7894 15.305 10.1931 18.1757 6.70157 22.1771C3.21006 26.1785 0.980584 31.1303 0.295737 36.405C-0.38911 41.6798 0.501506 47.0398 2.85469 51.8059C5.20788 56.5719 8.91769 60.5294 13.5139 63.1766C18.1101 65.8238 23.3858 67.0417 28.6723 66.6757C33.9588 66.3098 39.018 64.3766 43.2088 61.1211L39.5306 55.2829C37.8122 56.7036 35.8702 57.8273 33.7843 58.6078Z" fill="#8C5256"/>
<path d="M253.535 28.853V49.767C253.535 56.5294 249.617 60.8122 243.635 60.8122C237.653 60.8122 233.321 56.5294 233.321 49.767V28.853H226.858V49.1403C226.858 59.7708 233.458 66.673 243.635 66.673C252.437 66.673 253.812 61.0827 253.812 60.943V68.4673C253.812 75.9218 250.58 80.1325 243.841 80.1325C241.434 80.1444 239.105 79.2775 237.287 77.6934C235.469 76.1092 234.287 73.9158 233.961 71.5217L228.183 73.5504C229.01 77.0972 231.009 80.2584 233.854 82.5191C236.7 84.7798 240.224 86.0067 243.853 86C254.303 86 260.021 79.0956 260.021 68.4673V28.853H253.535Z" fill="#8C5256"/>
</g>
<defs>
<clipPath id="clip0_206_215">
<rect width="260" height="86" fill="white"/>
</clipPath>
</defs>
</svg>
