<svg width="290" height="56" viewBox="0 0 290 56" fill="none" xmlns="http://www.w3.org/2000/svg">
<g clip-path="url(#clip0_206_258)">
<path d="M22.7158 8.83612C19.3152 8.83612 18.295 10.3285 18.295 13.6525V19.1473H27.4085L26.5244 28.1018H18.295V55.1687H7.34522V28.1018H0V19.2152H7.34522V13.856C7.34522 4.76591 11.0178 0.017334 21.1515 0.017334C23.2598 0.017334 25.4362 0.153008 27.5446 0.424355V8.83612" fill="#8C5256"/>
<path d="M28.1569 36.0387C28.1569 25.9988 32.9177 18.4011 42.9833 18.4011C48.4242 18.4011 51.7568 21.1824 53.3891 24.7099V19.2152H63.8628V55.2365H53.321V49.8096C51.8248 53.2693 48.3562 55.9827 42.9153 55.9827C32.9177 55.9827 28.0889 48.4528 28.0889 38.3451M39.1067 38.4808C39.1067 43.8399 41.079 47.4353 46.1799 47.4353C50.6686 47.4353 52.913 44.1791 52.913 39.0235V35.3603C52.913 30.2047 50.6006 26.9486 46.1799 26.9486C41.079 26.9486 39.1067 30.4761 39.1067 35.903V38.4808Z" fill="#8C5256"/>
<path d="M86.5784 18.4011C90.7951 18.4011 94.8758 19.283 97.0522 20.8432L94.6038 28.5766C92.3594 27.4913 89.843 26.9486 87.3266 26.9486C81.4096 26.9486 78.8252 30.3404 78.8252 36.1744V38.2773C78.8252 44.1113 81.4096 47.5031 87.3266 47.5031C89.843 47.5031 92.3594 46.8926 94.6038 45.8072L97.0522 53.5406C94.8758 55.033 90.8632 55.9827 86.5784 55.9827C73.7243 55.9827 67.9434 49.1312 67.9434 38.0738V36.3779C67.9434 25.3205 73.7243 18.4011 86.5784 18.4011Z" fill="#8C5256"/>
<path d="M98.4805 38.5487V35.3603C98.4805 25.117 104.329 18.4011 116.231 18.4011C127.453 18.4011 132.418 25.1848 132.418 35.2247V40.9908H109.43C109.634 45.9429 111.879 48.1136 117.932 48.1136C121.876 48.1136 125.821 47.3674 129.562 45.9429L131.534 53.4049C128.677 54.8973 122.76 56.0506 117.524 56.0506C103.649 55.9827 98.4805 49.1312 98.4805 38.5487ZM109.43 33.8001H122.624V32.9182C122.624 28.9837 121.06 25.8632 116.231 25.8632C111.335 25.8632 109.43 28.9837 109.43 33.8001Z" fill="#8C5256"/>
<path d="M172.953 38.3452C172.953 48.3851 168.124 55.9828 158.058 55.9828C152.617 55.9828 148.809 53.2693 147.312 49.8096V55.2366H136.975V1.10279L147.924 0.153076V24.2351C149.489 21.0468 153.025 18.469 158.126 18.469C168.124 18.469 173.021 25.9989 173.021 36.1066M162.003 35.8352C162.003 30.7475 160.03 26.9486 154.794 26.9486C150.305 26.9486 147.924 30.137 147.924 35.2925V39.0914C147.924 44.247 150.373 47.4353 154.794 47.4353C160.03 47.4353 162.003 43.6365 162.003 38.5487V35.8352Z" fill="#8C5256"/>
<path d="M176.558 38.0738V36.2422C176.558 25.8632 182.475 18.4011 194.513 18.4011C206.551 18.4011 212.468 25.8632 212.468 36.2422V38.0738C212.468 48.4528 206.551 55.9149 194.513 55.9149C182.475 55.9149 176.558 48.5207 176.558 38.0738ZM201.586 35.496C201.586 30.7474 199.613 26.9486 194.513 26.9486C189.412 26.9486 187.439 30.7474 187.439 35.496V38.8878C187.439 43.6364 189.412 47.4353 194.513 47.4353C199.613 47.4353 201.586 43.6364 201.586 38.8878V35.496Z" fill="#8C5256"/>
<path d="M216.208 38.0738V36.2422C216.208 25.8632 222.125 18.4011 234.163 18.4011C246.201 18.4011 252.118 25.8632 252.118 36.2422V38.0738C252.118 48.4528 246.201 55.9149 234.163 55.9149C222.125 55.9149 216.208 48.5207 216.208 38.0738ZM241.236 35.496C241.236 30.7474 239.264 26.9486 234.163 26.9486C229.062 26.9486 227.09 30.7474 227.09 35.496V38.8878C227.09 43.6364 229.062 47.4353 234.163 47.4353C239.264 47.4353 241.236 43.6364 241.236 38.8878V35.496Z" fill="#8C5256"/>
<path d="M267.148 36.3779L277.962 19.1474H289.524L278.234 36.9884L290 55.2365H278.37L267.148 37.599V55.2365H256.267V1.10276L267.148 0.0852051" fill="#8C5256"/>
</g>
<defs>
<clipPath id="clip0_206_258">
<rect width="290" height="56" fill="white"/>
</clipPath>
</defs>
</svg>
