<svg width="102" height="77" viewBox="0 0 102 77" fill="none" xmlns="http://www.w3.org/2000/svg">
<path d="M6.95473 76.5186H23.1819V37.1096L0 19.7231V69.5643C0 73.4066 3.1122 76.519 6.95473 76.519V76.5186Z" fill="#8C5256"/>
<path d="M78.8184 76.5186H95.0457C98.8881 76.5186 102 73.4064 102 69.5641V19.7231L78.8184 37.1096V76.5186Z" fill="#8C5256"/>
<path d="M78.8184 6.97322V37.1096L102 19.7232V10.4506C102 1.85589 92.1887 -3.05286 85.3093 2.10511L78.8184 6.97322Z" fill="#8C5256" fill-opacity="0.5"/>
<path fill-rule="evenodd" clip-rule="evenodd" d="M23.1816 37.1096V6.97314L50.9998 27.8369L78.8179 6.97314V37.1096L50.9998 57.9731L23.1816 37.1096Z" fill="#8C5256"/>
<path d="M0 10.4506V19.7232L23.1819 37.1096V6.97323L16.6909 2.10512C9.81152 -3.05285 0 1.8559 0 10.4502V10.4506Z" fill="#8C5256" fill-opacity="0.5"/>
</svg>
