<svg width="256" height="73" viewBox="0 0 256 73" fill="none" xmlns="http://www.w3.org/2000/svg">
<g clip-path="url(#clip0_206_299)">
<path d="M13.2101 0.25372C7.97186 2.46014 2.21322 8.68569 0.394474 16.5061C-1.9089 26.4116 7.67634 30.6005 8.46251 29.2292C9.38783 27.6149 6.745 27.0691 6.20093 21.9294C5.4979 15.2911 8.56719 7.87355 12.4304 4.61892C13.1485 4.01426 13.1141 4.85585 13.1141 6.41256C13.1141 9.1968 12.9611 34.1865 12.9611 39.4024C12.9611 46.4596 12.6712 48.6881 12.1504 50.8897C11.6227 53.1213 10.7749 54.629 11.4172 55.2103C12.1353 55.86 15.2007 54.3146 16.9755 51.824C19.1036 48.8371 19.8484 45.2498 19.9824 41.3541C20.1439 36.658 20.137 29.2062 20.1439 24.9558C20.1504 21.0575 20.209 9.6425 20.0759 2.78024C20.0435 1.09705 15.4011 -0.668872 13.2101 0.25372ZM254.811 37.3281C254.051 37.3281 253.704 38.1155 253.418 39.4414C252.422 44.0513 251.376 45.0917 250.028 45.0917C248.521 45.0917 247.166 42.809 246.819 38.2403C246.545 34.6478 246.589 28.0333 246.939 21.4543C247.011 20.1024 246.64 18.7649 243.034 17.4477C241.482 16.8807 239.226 16.0469 238.103 18.7727C234.931 26.4735 233.689 32.5878 233.397 35.0705C233.382 35.1992 233.225 35.2252 233.197 34.925C233.011 32.936 232.595 29.321 232.543 21.7267C232.533 20.2449 232.221 18.9836 230.594 17.951C229.539 17.2805 226.334 16.0959 225.18 17.5058C224.181 18.6588 223.022 21.7618 221.819 25.4401C220.841 28.4292 220.16 30.4515 220.16 30.4515C220.16 30.4515 220.173 22.3851 220.185 19.3254C220.19 18.1711 219.402 17.786 219.165 17.7167C218.097 17.4048 215.991 16.8838 215.097 16.8838C213.994 16.8838 213.724 17.5036 213.724 18.4067C213.724 18.5249 213.55 29.0269 213.55 36.3704C213.55 36.6892 213.55 37.0374 213.552 37.4073C212.942 40.7824 210.963 45.3641 208.812 45.3641C206.658 45.3641 205.643 43.4488 205.643 34.6941C205.643 29.5874 205.795 27.3662 205.87 23.6728C205.913 21.5452 205.997 19.911 205.992 19.5407C205.976 18.4037 204.021 17.8306 203.111 17.6184C202.197 17.4053 201.403 17.3221 200.782 17.3576C199.905 17.4074 199.284 17.9865 199.284 18.7831C199.284 19.2102 199.289 20.0219 199.289 20.0219C198.158 18.2352 196.339 16.9916 195.129 16.6312C191.87 15.6584 188.469 16.5208 185.903 20.1297C183.865 22.9976 182.636 26.2461 182.152 30.9128C181.798 34.3242 181.914 37.7842 182.542 40.71C181.783 44.0114 180.373 45.3641 178.829 45.3641C176.587 45.3641 174.963 41.6859 175.151 35.3239C175.276 31.1393 176.108 28.2031 177.019 23.9548C177.407 22.1434 177.091 21.1957 176.3 20.287C175.575 19.4532 174.03 19.0278 171.807 19.5515C170.225 19.9244 167.962 20.3264 165.892 20.6348C165.892 20.6348 166.017 20.1336 166.119 19.25C166.658 14.6163 161.65 14.9922 160.052 16.4723C159.098 17.3559 158.449 18.398 158.203 20.2718C157.812 23.2449 160.223 24.6478 160.223 24.6478C159.432 28.2906 157.492 33.0482 155.49 36.4882C154.417 38.3312 153.596 39.6969 152.537 41.1488C152.534 40.6091 152.531 40.0694 152.529 39.5297C152.504 31.8722 152.606 25.8455 152.65 23.6733C152.694 21.5457 152.779 19.9552 152.774 19.5848C152.762 18.7532 152.279 18.4387 151.275 18.0416C150.387 17.6898 149.336 17.4464 148.247 17.3615C146.872 17.2541 146.044 17.987 146.065 18.8541C146.07 19.0179 146.07 20.0232 146.07 20.0232C144.939 18.2365 143.12 16.9929 141.91 16.6325C138.651 15.6597 135.25 16.5221 132.685 20.131C130.646 22.9989 129.311 27.0232 128.933 30.8781C128.581 34.4711 128.646 37.5243 129.126 40.0963C128.608 42.6717 127.118 45.365 125.433 45.365C123.279 45.365 122.053 43.4497 122.053 34.695C122.053 29.5882 122.206 27.3675 122.281 23.6737C122.324 21.5461 122.408 19.9119 122.403 19.5415C122.387 18.4045 120.432 17.8315 119.522 17.6192C118.57 17.3975 117.748 17.3165 117.117 17.3633C116.284 17.4256 115.699 18.175 115.699 18.7341V20.0232C114.568 18.2365 112.749 16.9929 111.539 16.6325C108.28 15.6597 104.898 16.536 102.314 20.131C100.629 22.4752 99.2645 25.074 98.5623 30.827C98.3594 32.4894 98.2698 34.0466 98.2814 35.5015C97.6094 39.6337 94.6418 44.3961 92.2135 44.3961C90.7928 44.3961 89.4397 41.6257 89.4397 35.7207C89.4397 27.8548 89.9243 16.6559 90.0058 15.5765C90.0058 15.5765 93.0733 15.5241 93.6674 15.5172C95.1979 15.5003 96.5837 15.5367 98.6213 15.4319C99.6436 15.3795 100.628 11.6908 99.5733 11.2343C99.0956 11.0277 95.7157 10.8466 94.3764 10.818C93.25 10.7925 90.1135 10.559 90.1135 10.559C90.1135 10.559 90.3948 3.12545 90.4607 2.34016C90.5162 1.68525 89.6741 1.3487 89.1912 1.14383C88.0164 0.644847 86.9662 0.40532 85.7208 0.147167C84.0003 -0.209742 83.2193 0.139371 83.0672 1.59992C82.8376 3.81545 82.7187 10.3065 82.7187 10.3065C81.4557 10.3065 77.1432 10.0583 75.8801 10.0583C74.7063 10.0583 73.4402 15.1326 75.0625 15.1949C76.9291 15.2677 80.1819 15.3305 82.3383 15.3959C82.3383 15.3959 82.2423 26.7798 82.2423 30.2943C82.2423 30.6681 82.2436 31.028 82.2462 31.3776C81.0594 37.5975 76.8787 40.9574 76.8787 40.9574C77.7764 36.8425 75.9426 33.7525 72.6398 31.1367C71.4224 30.1726 69.0204 28.3482 66.3324 26.3484C66.3324 26.3484 67.8892 24.8055 69.2698 21.7012C70.2481 19.5025 70.2904 16.9864 67.8888 16.4316C63.9217 15.5146 60.65 18.4439 59.6743 21.5717C58.9182 23.9951 59.3215 25.7926 60.8025 27.6608C60.9106 27.7972 61.0278 27.9362 61.1488 28.0766C60.2532 29.8122 59.0229 32.149 57.9809 33.9612C55.0882 38.9926 52.9037 42.9723 51.2521 42.9723C49.9322 42.9723 49.9503 38.932 49.9503 35.1489C49.9503 31.8878 50.1898 26.9846 50.3811 21.9082C50.4444 20.2294 49.6091 19.273 48.2095 18.4067C47.3592 17.8804 45.5443 16.8456 44.4936 16.8456C42.9204 16.8456 38.3813 17.0609 34.0925 29.535C33.5519 31.1073 32.49 33.9721 32.49 33.9721L32.5813 18.9715C32.5813 18.6198 32.3948 18.2794 31.9683 18.0468C31.2455 17.6526 29.3152 16.8456 27.599 16.8456C26.7813 16.8456 26.373 17.2281 26.373 17.9904L26.2231 41.4594C26.2231 43.2426 26.2692 45.323 26.4449 46.2326C26.6194 47.1439 26.9024 47.8846 27.253 48.3255C27.6028 48.7656 28.0078 49.1013 28.6755 49.2399C29.2967 49.3685 32.6985 49.8077 32.8756 48.5005C33.0875 46.9338 33.0953 45.2394 34.8817 38.9199C37.6628 29.081 41.2887 24.2805 42.9937 22.5757C43.2913 22.2777 43.6317 22.2599 43.6153 22.7476C43.5429 24.9043 43.287 30.2947 43.1143 34.8739C42.6525 47.1283 44.8697 49.3997 48.0381 49.3997C50.4621 49.3997 53.879 46.9776 57.5419 40.8478C59.825 37.0275 62.0422 33.2817 63.6357 30.5819C64.7458 31.6154 65.9912 32.7272 67.2366 33.9153C70.1297 36.6762 71.0795 39.2997 70.4493 41.7886C69.9673 43.6913 68.152 45.6522 64.9211 43.7464C63.9795 43.1906 63.5771 42.761 62.6307 42.1338C62.1219 41.7972 61.3457 41.6963 60.88 42.0493C59.6699 42.9663 58.9781 44.1332 58.5831 45.5772C58.1988 46.9824 59.5984 47.7252 61.0493 48.3749C62.2986 48.9341 64.9836 49.4409 66.6959 49.4985C73.3674 49.7228 78.7125 46.2594 82.4327 37.3255C83.0991 45.041 85.9332 49.4071 90.8583 49.4071C94.1507 49.4071 97.4518 45.1281 98.8953 40.9184C99.3097 42.6345 99.9231 44.1262 100.715 45.3884C104.51 51.4338 111.872 50.1326 115.569 44.9994C116.712 43.4133 116.887 42.8428 116.887 42.8428C117.426 47.6901 121.308 49.3841 123.531 49.3841C126.021 49.3841 128.591 48.2008 130.392 44.1228C130.599 44.5579 130.83 44.9806 131.086 45.3888C134.88 51.4342 142.242 50.133 145.94 44.9999C146.114 44.7586 146.265 44.5403 146.397 44.3441L146.506 47.5286L143.102 50.668C137.395 55.9267 133.06 59.9155 132.741 64.5606C132.336 70.4833 137.11 72.6846 140.727 72.973C144.562 73.2793 147.852 71.1473 149.871 68.1634C151.648 65.5377 152.811 59.8857 152.726 54.3029C152.692 52.0674 152.636 49.2252 152.592 46.1784C154.595 43.8395 156.852 40.8829 158.93 37.4229C161.195 33.6516 163.622 28.5877 164.864 24.6465C164.864 24.6465 166.973 24.6647 169.223 24.5166C169.943 24.4694 170.149 24.6166 170.017 25.1477C169.856 25.7883 167.174 36.1919 169.622 43.1222C171.297 47.8664 175.075 49.3928 177.315 49.3928C179.936 49.3928 182.444 47.4021 183.788 44.4459C183.95 44.7755 184.12 45.0943 184.304 45.3888C188.099 51.4342 195.434 50.1257 199.158 44.9999C199.998 43.8434 200.475 42.8433 200.475 42.8433C201.274 47.8599 205.154 49.4097 207.377 49.4097C209.692 49.4097 211.889 48.4555 213.671 44.2146C213.745 46.0823 213.863 47.6087 214.048 48.0899C214.161 48.3844 214.819 48.7539 215.297 48.9324C217.415 49.7215 219.575 49.3486 220.374 49.1862C220.927 49.0736 221.359 48.627 221.418 47.474C221.573 44.4463 221.478 39.3595 222.391 35.5786C223.923 29.2339 225.352 26.7724 226.03 25.5544C226.41 24.8718 226.838 24.7592 226.854 25.4816C226.885 26.9435 226.957 31.2364 227.551 37.0041C227.987 41.2458 228.569 43.7533 229.017 44.5468C230.294 46.8156 231.872 46.923 233.156 46.923C233.973 46.923 235.682 46.6965 235.529 45.2524C235.455 44.5485 235.585 40.1985 237.096 33.9478C238.083 29.8659 239.727 26.1781 240.321 24.8293C240.539 24.3321 240.641 24.7241 240.638 24.8003C240.513 27.6114 240.232 36.8061 241.371 41.8349C242.915 48.6478 247.381 49.4097 248.937 49.4097C252.26 49.4097 254.977 46.8684 255.893 40.1816C256.115 38.5707 255.789 37.3281 254.811 37.3281ZM115.631 33.1942C115.441 36.7329 114.754 39.6913 113.652 41.8401C111.658 45.7293 107.714 46.9624 105.975 41.3428C104.721 37.2908 105.148 31.7652 105.669 28.7809C106.443 24.3511 108.382 21.2109 111.408 21.5084C114.517 21.8142 116.028 25.8307 115.631 33.1942ZM146.001 33.2453C145.824 36.587 144.962 39.9438 144.022 41.8405C142.082 45.7566 138.026 46.9806 136.345 41.3433C135.196 37.4914 135.471 32.5063 136.04 29.3656C136.777 25.2897 138.566 21.5089 141.778 21.5089C144.902 21.5084 146.442 24.9536 146.001 33.2453ZM146.794 56.0437C146.752 62.1397 145.798 67.4847 143.752 69.0371C140.85 71.2383 136.949 69.5872 137.757 65.1388C138.471 61.2024 141.851 57.1824 146.803 52.2706C146.802 52.2706 146.812 53.3907 146.794 56.0437ZM199.22 33.2808C199.052 36.9495 198.244 39.8173 197.241 41.8401C195.301 45.7561 191.273 46.972 189.564 41.3428C188.632 38.2745 188.589 33.1495 189.259 28.8675C189.941 24.5058 191.845 21.2109 194.998 21.5084C198.107 21.8017 199.563 25.8307 199.22 33.2808Z" fill="#8C5256"/>
</g>
<defs>
<clipPath id="clip0_206_299">
<rect width="256" height="73" fill="white"/>
</clipPath>
</defs>
</svg>
