<svg width="252" height="75" viewBox="0 0 252 75" fill="none" xmlns="http://www.w3.org/2000/svg">
<g clip-path="url(#clip0_206_407)">
<path d="M246.724 44.7829C246.58 45.5052 246.329 46.119 245.988 46.6604C245.647 47.2014 245.198 47.6353 244.624 47.9776C244.067 48.3031 243.368 48.4829 242.542 48.4829C241.734 48.4829 241.034 48.3209 240.478 47.9776C239.923 47.651 239.45 47.2003 239.096 46.6604C238.754 46.1195 238.503 45.5052 238.342 44.7829C238.184 44.066 238.105 43.3336 238.108 42.5993C238.108 41.8414 238.181 41.0829 238.324 40.38C238.467 39.6577 238.719 39.0261 239.06 38.4847C239.401 37.9244 239.85 37.4919 240.423 37.1313C240.981 36.788 241.68 36.6077 242.506 36.6077C243.313 36.6077 243.996 36.788 244.552 37.1313C245.11 37.4781 245.582 37.9467 245.935 38.5025C246.294 39.0618 246.545 39.7112 246.706 40.4157C246.867 41.1374 246.94 41.8592 246.94 42.5993C246.94 43.3394 246.867 44.0612 246.724 44.7829ZM251.499 38.9538C251.157 37.7446 250.655 36.6979 249.973 35.7774C249.272 34.8754 248.411 34.1348 247.37 33.5938C246.329 33.0524 245.073 32.7636 243.619 32.7636C242.47 32.7636 241.428 32.9984 240.478 33.4497C239.526 33.901 238.736 34.6406 238.125 35.6333H238.054V33.2688H233.243V58.3013H238.305V49.5113H238.377C238.973 50.3944 239.791 51.1041 240.747 51.5691C241.716 52.0382 242.757 52.2731 243.906 52.2731C245.252 52.2731 246.437 52.0026 247.46 51.479C248.447 50.9703 249.312 50.2493 249.991 49.3672C250.673 48.4829 251.175 47.4718 251.499 46.3171C251.84 45.1619 252.001 43.9715 252.001 42.7256C252.001 41.4084 251.84 40.1452 251.499 38.9355V38.9538ZM226.531 44.7829C226.387 45.5052 226.136 46.119 225.795 46.6604C225.453 47.2019 225.005 47.6353 224.43 47.9776C223.874 48.3031 223.174 48.4829 222.349 48.4829C221.54 48.4829 220.859 48.3209 220.284 47.9776C219.729 47.6507 219.256 47.2001 218.901 46.6604C218.561 46.1195 218.31 45.5052 218.149 44.7829C217.99 44.0661 217.912 43.3337 217.915 42.5993C217.915 41.8414 217.987 41.0829 218.13 40.38C218.274 39.6577 218.525 39.0261 218.866 38.4847C219.207 37.9244 219.656 37.4919 220.23 37.1313C220.786 36.788 221.487 36.6077 222.312 36.6077C223.12 36.6077 223.802 36.788 224.359 37.1313C224.916 37.478 225.388 37.9467 225.74 38.5025C226.1 39.0618 226.351 39.7112 226.513 40.4157C226.674 41.1374 226.745 41.8592 226.745 42.5993C226.745 43.3394 226.674 44.0612 226.531 44.7829ZM229.779 35.7774C229.097 34.8754 228.218 34.1348 227.177 33.5938C226.135 33.0524 224.879 32.7636 223.425 32.7636C222.276 32.7636 221.235 32.9984 220.283 33.4497C219.333 33.901 218.543 34.6406 217.932 35.6333H217.86V33.2688H213.049V58.3013H218.111V49.5113H218.184C218.78 50.3944 219.598 51.1041 220.553 51.5691C221.522 52.0382 222.563 52.2731 223.711 52.2731C225.076 52.2731 226.242 52.0026 227.267 51.479C228.254 50.97 229.118 50.2491 229.797 49.3672C230.479 48.4829 230.982 47.4718 231.323 46.3171C231.655 45.1489 231.824 43.9403 231.826 42.7256C231.826 41.4084 231.664 40.1452 231.323 38.9355C230.982 37.7268 230.479 36.6795 229.779 35.7596V35.7774ZM196.464 41.9137L199.784 32.5104H199.856L203.069 41.9137H196.464ZM197.002 26.1938L187.363 51.8034H193L194.992 46.1006H204.523L206.444 51.8034H212.26L202.729 26.1938H196.984H197.002ZM186.95 43.6822C186.609 43.1046 186.178 42.5993 185.622 42.2025C185.084 41.8057 184.455 41.4981 183.755 41.2459C183.046 41.0116 182.327 40.807 181.601 40.6327C180.883 40.4697 180.183 40.3072 179.5 40.163C178.818 40.0189 178.19 39.8559 177.67 39.6756C177.132 39.4953 176.701 39.261 176.377 38.9716C176.036 38.6828 175.875 38.3222 175.875 37.8531C175.875 37.4741 175.964 37.167 176.162 36.9322C176.359 36.6979 176.593 36.5354 176.862 36.409C177.131 36.2827 177.436 36.2104 177.778 36.1747C178.087 36.1403 178.399 36.1222 178.711 36.1208C179.608 36.1208 180.398 36.3011 181.063 36.6439C181.727 36.9867 182.104 37.6544 182.158 38.6288H186.968C186.878 37.4736 186.573 36.5354 186.089 35.7769C185.604 35.0185 184.994 34.4236 184.258 33.9723C183.522 33.521 182.678 33.1965 181.745 32.9979C180.812 32.7992 179.842 32.7091 178.837 32.7091C177.832 32.7091 176.863 32.7997 175.911 32.9795C174.96 33.1598 174.099 33.467 173.345 33.9183C172.573 34.3696 171.962 34.9655 171.514 35.7229C171.047 36.4809 170.814 37.4741 170.814 38.6645C170.814 39.4769 170.975 40.1625 171.317 40.7218C171.64 41.2821 172.088 41.7507 172.627 42.1297C173.183 42.4908 173.794 42.7979 174.494 43.0323C175.194 43.2666 175.912 43.4657 176.648 43.6277C178.461 44.0067 179.861 44.3856 180.884 44.7646C181.889 45.1435 182.392 45.7212 182.392 46.4791C182.392 46.9304 182.284 47.3093 182.069 47.616C181.858 47.9156 181.582 48.1626 181.261 48.3377C180.938 48.5181 180.578 48.6449 180.184 48.7345C179.813 48.8194 179.434 48.8617 179.053 48.8609C178.551 48.8609 178.066 48.8074 177.617 48.6805C177.15 48.5542 176.738 48.3729 176.379 48.1208C176.02 47.8681 175.732 47.5431 175.499 47.1463C175.266 46.7496 175.158 46.2799 175.158 45.7385H170.347C170.401 46.9834 170.671 48.0123 171.191 48.8425C171.694 49.6733 172.358 50.3227 173.148 50.828C173.938 51.3333 174.853 51.6939 175.876 51.9104C176.9 52.1274 177.94 52.2359 179.017 52.2359C180.059 52.2359 181.099 52.1274 182.105 51.9282C183.11 51.7301 184.008 51.3689 184.797 50.8637C185.587 50.3584 186.215 49.6906 186.7 48.8782C187.184 48.0484 187.436 47.0379 187.436 45.8103C187.436 44.9444 187.275 44.2226 186.933 43.6445L186.95 43.6822ZM166.002 27.7102H160.941V33.2688H157.871V36.6795H160.941V47.617C160.941 48.5557 161.102 49.2958 161.407 49.8729C161.713 50.4511 162.143 50.8835 162.682 51.209C163.22 51.5156 163.831 51.7321 164.531 51.8406C165.268 51.9509 166.012 52.005 166.757 52.0026C167.259 52.0026 167.762 51.9848 168.3 51.9669C168.776 51.9507 169.249 51.9024 169.718 51.8223V47.8696C169.47 47.9258 169.219 47.962 168.965 47.9776C168.69 47.9992 168.415 48.0113 168.139 48.0138C167.277 48.0138 166.721 47.8696 166.434 47.5803C166.147 47.292 166.003 46.7139 166.003 45.8663V36.6795H169.718V33.2688H166.003V27.7102H166.002ZM151.481 44.6388C151.481 44.9271 151.445 45.3065 151.391 45.794C151.33 46.2926 151.165 46.7725 150.906 47.2019C150.637 47.6715 150.242 48.0683 149.686 48.4116C149.148 48.7539 148.357 48.9169 147.371 48.9169C146.975 48.9169 146.58 48.8802 146.186 48.8084C145.809 48.7355 145.468 48.6092 145.181 48.4294C144.893 48.2486 144.678 48.0143 144.498 47.6893C144.337 47.3827 144.247 47.0037 144.247 46.5341C144.247 46.0466 144.337 45.6677 144.498 45.3432C144.66 45.0356 144.893 44.7829 145.163 44.567C145.432 44.3683 145.755 44.2063 146.132 44.08C146.509 43.9537 146.868 43.863 147.263 43.7907C147.668 43.7206 148.075 43.6605 148.483 43.6104C148.896 43.5564 149.273 43.5019 149.65 43.4301C150.027 43.3582 150.368 43.2676 150.691 43.1596C151.014 43.0516 151.283 42.907 151.499 42.7083V44.6036L151.481 44.6388ZM156.542 47.6888V38.0329C156.542 36.9143 156.291 36.0118 155.789 35.3262C155.287 34.64 154.64 34.1169 153.868 33.738C153.078 33.359 152.217 33.1064 151.265 32.9622C150.331 32.8339 149.39 32.7675 148.448 32.7636C147.424 32.7636 146.401 32.8721 145.396 33.0707C144.391 33.2694 143.475 33.6116 142.667 34.0996C141.872 34.5754 141.192 35.2228 140.675 35.9949C140.155 36.789 139.849 37.7813 139.778 38.9727H144.84C144.929 37.9626 145.27 37.2587 145.844 36.8252C146.419 36.3917 147.191 36.1758 148.196 36.1758C148.645 36.1758 149.075 36.2114 149.471 36.2659C149.839 36.3145 150.193 36.4374 150.512 36.6271C150.817 36.8074 151.05 37.06 151.23 37.385C151.41 37.71 151.499 38.1424 151.499 38.7022C151.517 39.2253 151.374 39.6231 151.032 39.9114C150.691 40.1819 150.242 40.3989 149.668 40.543C149.095 40.6872 148.448 40.7957 147.712 40.868C146.976 40.9403 146.222 41.0305 145.468 41.1568C144.715 41.2831 143.96 41.4451 143.206 41.6437C142.453 41.8424 141.788 42.149 141.214 42.5647C140.621 42.9793 140.155 43.5207 139.778 44.1885C139.401 44.8746 139.221 45.741 139.221 46.7878C139.221 47.7443 139.382 48.5746 139.706 49.2602C140.009 49.9286 140.464 50.5161 141.034 50.9752C141.627 51.4387 142.304 51.7819 143.027 51.9858C143.78 52.2023 144.606 52.3102 145.486 52.3102C146.635 52.3102 147.747 52.1483 148.842 51.805C149.925 51.4726 150.907 50.8706 151.696 50.0548C151.714 50.3614 151.768 50.6676 151.822 50.9752C151.876 51.2635 151.965 51.5706 152.056 51.8595H157.189C156.956 51.4805 156.776 50.9024 156.687 50.1444C156.592 49.348 156.544 48.5465 156.543 47.7443V47.6888H156.542ZM135.685 34.8749C135.183 34.2254 134.5 33.7018 133.639 33.3407C132.777 32.9617 131.665 32.7809 130.3 32.7809C129.349 32.7809 128.38 33.0335 127.375 33.521C126.369 34.0084 125.561 34.8025 124.916 35.8671H124.808V26.2117H119.746V51.8218H124.808V42.094C124.808 40.1987 125.113 38.8453 125.741 38.0151C126.352 37.1848 127.357 36.788 128.739 36.788C129.941 36.788 130.803 37.167 131.27 37.9244C131.737 38.6823 131.988 39.8197 131.988 41.3534V51.8218H137.05V40.4157C137.05 39.2604 136.942 38.2142 136.744 37.2755C136.547 36.3367 136.188 35.5248 135.685 34.8749ZM108.922 43.863H108.85L104.506 26.2122H99.2644L94.8485 43.6465H94.7766L90.7375 26.2122H85.1377L91.8865 51.8223H97.5587L101.795 34.3874H101.867L106.175 51.8223H111.739L114.79 40.4518L118.596 26.2122H113.103L108.922 43.863Z" fill="#8C5256"/>
<path d="M37.6603 67.235C31.4672 67.235 25.6876 65.358 20.8593 62.1638L9.11957 65.9351L12.9251 54.529C9.26344 49.4751 7.10994 43.2487 7.10994 36.5348C7.10994 19.6058 20.8056 5.83523 37.6425 5.83523C54.4795 5.83523 68.1751 19.6058 68.1751 36.5348C68.1751 53.4634 54.4795 67.2344 37.6425 67.2344H37.6603V67.235ZM37.6603 0.0234375C17.6095 0.0234375 1.34749 16.3759 1.34749 36.5353C1.34749 43.4295 3.25024 49.8908 6.55269 55.3954L0.000976562 74.9777L20.1055 68.4987C25.4791 71.4863 31.5199 73.0513 37.6603 73.0468C57.7105 73.0468 73.9731 56.6953 73.9731 36.5353C73.9725 16.3759 57.7105 0.0234375 37.6603 0.0234375Z" fill="#8C5256"/>
<path d="M29.1331 21.4292C28.5409 20.0035 28.092 19.9495 27.1949 19.9129C26.8542 19.8908 26.5129 19.8789 26.1715 19.8772C25.0044 19.8772 23.784 20.22 23.0479 20.9779C22.1508 21.8983 19.9248 24.0458 19.9248 28.4497C19.9248 32.8536 23.1199 37.1129 23.5505 37.7089C23.9993 38.3038 29.7795 47.4723 38.7542 51.2089C45.7725 54.1326 47.8551 53.8617 49.4523 53.5189C51.7857 53.0136 54.7117 51.2802 55.4478 49.1873C56.1839 47.0933 56.1839 45.3065 55.9681 44.9275C55.7528 44.5485 55.1601 44.3326 54.2629 43.8808C53.3657 43.4295 49.0035 41.2637 48.1778 40.9749C47.3697 40.6682 46.5982 40.7767 45.9883 41.6432C45.1266 42.8524 44.2831 44.0799 43.6007 44.8195C43.0622 45.3971 42.1823 45.4695 41.4467 45.1623C40.4594 44.7477 37.6954 43.7723 34.2846 40.7222C31.6457 38.3583 29.8509 35.4167 29.3306 34.5325C28.8099 33.6304 29.2769 33.1063 29.6893 32.6193C30.1381 32.0596 30.5687 31.6628 31.0176 31.1391C31.4664 30.616 31.7177 30.345 32.0049 29.7313C32.3104 29.1358 32.0946 28.522 31.8793 28.0708C31.664 27.6195 29.8691 23.2155 29.1331 21.4292Z" fill="#8C5256"/>
</g>
<defs>
<clipPath id="clip0_206_407">
<rect width="252" height="75" fill="white"/>
</clipPath>
</defs>
</svg>
